<?xml version="1.0" standalone="no"?>
<!DOCTYPE svg PUBLIC "-//W3C//DTD SVG 20010904//EN"
 "http://www.w3.org/TR/2001/REC-SVG-20010904/DTD/svg10.dtd">
<svg version="1.0" xmlns="http://www.w3.org/2000/svg"
 width="260.000000pt" height="260.000000pt" viewBox="0 0 260.000000 260.000000"
 preserveAspectRatio="xMidYMid meet">
<metadata>
Created by potrace 1.11, written by Peter Selinger 2001-2013
</metadata>
<g transform="translate(0.000000,260.000000) scale(0.100000,-0.100000)"
fill="#000000" stroke="none">
<path d="M2564 2570 l-29 -29 -1237 -1 -1238 0 0 -1240 c0 -820 -3 -1240 -10
-1240 -7 0 -10 421 -10 1244 0 819 -3 1247 -10 1251 -7 4 -10 -418 -10 -1259
0 -832 -3 -1267 -10 -1271 -5 -3 -10 -10 -10 -16 0 -5 494 -9 1300 -9 l1300 0
0 1300 c0 715 -1 1300 -3 1300 -2 0 -17 -13 -33 -30z m-1614 -496 l55 -19 3
-70 c4 -94 -7 -102 -91 -66 -53 22 -76 26 -162 25 -88 0 -107 -3 -156 -27
-139 -67 -207 -202 -197 -392 8 -149 65 -248 176 -302 52 -26 67 -28 167 -28
96 1 118 4 174 27 35 15 69 24 77 21 10 -4 14 -24 14 -73 l0 -68 -47 -20 c-64
-27 -150 -42 -243 -42 -246 0 -424 144 -475 386 -64 301 99 590 373 659 79 20
259 14 332 -11z m406 -367 c56 -203 104 -370 106 -372 3 -3 151 498 209 708
l10 37 74 0 74 0 9 -32 c125 -464 197 -717 201 -706 3 7 48 175 100 373 l96
360 78 3 c60 2 79 0 83 -12 3 -8 -57 -236 -134 -508 l-139 -493 -85 -3 -86 -3
-11 33 c-5 18 -49 173 -96 343 -48 171 -90 313 -94 318 -4 4 -52 -150 -106
-343 l-99 -350 -85 0 -86 0 -144 494 c-79 272 -141 502 -138 511 6 13 20 15
84 13 l78 -3 101 -368z m-168 -1007 c6 0 12 -11 12 -25 0 -23 -4 -25 -45 -25
-38 0 -45 -3 -45 -19 0 -12 17 -31 43 -48 54 -37 71 -70 56 -112 -18 -51 -83
-74 -142 -52 -19 8 -23 15 -20 34 5 23 7 24 39 15 67 -18 100 29 42 60 -54 29
-78 58 -78 95 0 51 52 92 105 81 11 -2 26 -4 33 -4z m235 -12 c25 -13 57 -85
57 -128 0 -58 -34 -118 -76 -136 -89 -37 -164 26 -164 139 1 109 93 171 183
125z m-859 1 c32 -15 50 -59 41 -99 -8 -36 -55 -70 -97 -70 -27 0 -28 -2 -28
-50 0 -49 -1 -50 -30 -50 l-30 0 0 133 c0 74 3 137 7 140 11 11 110 8 137 -4z
m236 -14 c0 -23 -3 -25 -50 -25 -49 0 -50 -1 -50 -30 0 -29 2 -30 45 -30 41 0
45 -2 45 -25 0 -23 -4 -25 -45 -25 -45 0 -45 0 -45 -34 l0 -35 53 -3 c45 -3
52 -6 55 -25 3 -22 1 -23 -82 -23 l-86 0 0 140 0 140 80 0 c79 0 80 0 80 -25z
m173 16 c27 -10 50 -61 40 -89 -3 -9 -12 -24 -20 -33 -11 -13 -11 -20 1 -45 8
-16 18 -46 21 -66 7 -37 7 -38 -23 -38 -28 0 -32 4 -38 38 -9 52 -22 72 -44
72 -18 0 -20 -7 -20 -55 0 -54 0 -55 -30 -55 l-30 0 0 133 c0 74 3 137 7 140
10 10 108 8 136 -2z m650 -82 l47 -90 0 90 c0 90 0 91 25 91 l25 0 0 -140 0
-140 -30 0 c-27 0 -33 7 -74 88 l-45 87 0 -87 -1 -88 -30 0 -30 0 0 140 0 140
33 0 c32 0 35 -4 80 -91z m320 -43 c20 -74 37 -137 37 -140 0 -3 -13 -6 -30
-6 -25 0 -31 5 -38 33 -7 28 -13 32 -45 35 -34 3 -36 1 -43 -32 -5 -31 -10
-36 -35 -36 -16 0 -29 4 -29 10 0 5 16 68 36 140 l37 130 37 0 36 0 37 -134z
m117 19 l0 -115 50 0 c47 0 50 -2 50 -25 0 -25 -1 -25 -80 -25 l-80 0 0 140 0
140 30 0 30 0 0 -115z"/>
<path d="M1329 641 c-20 -16 -24 -28 -24 -79 0 -119 83 -141 109 -29 9 38 -10
104 -34 117 -24 13 -24 13 -51 -9z"/>
<path d="M480 610 c0 -35 3 -40 24 -40 32 0 50 24 42 55 -5 20 -13 25 -36 25
-28 0 -30 -2 -30 -40z"/>
<path d="M890 620 c0 -35 3 -40 23 -40 25 0 47 17 47 36 0 19 -29 44 -51 44
-16 0 -19 -7 -19 -40z"/>
<path d="M1854 585 c-10 -43 -10 -45 13 -45 26 0 27 9 10 58 l-12 33 -11 -46z"/>
</g>
</svg>
